<?xml version="1.0"?>
<svg xmlns="http://www.w3.org/2000/svg" xmlns:xlink="http://www.w3.org/1999/xlink" xmlns:svgjs="http://svgjs.com/svgjs" version="1.1" width="30" height="65" x="0" y="0" viewBox="0 0 512 512" style="enable-background:new 0 0 512 512" xml:space="preserve" class=""><g>
<g xmlns="http://www.w3.org/2000/svg">
	<g>
		<path d="M371.643,0H140.357C62.964,0,0,62.964,0,140.358v231.285C0,449.037,62.964,512,140.357,512h231.286    C449.037,512,512,449.037,512,371.643V140.358C512,62.964,449.037,0,371.643,0z M481.764,371.643    c0,60.721-49.399,110.121-110.121,110.121H140.357c-60.721,0-110.121-49.399-110.121-110.121V140.358    c0-60.722,49.4-110.122,110.121-110.122h231.286c60.722,0,110.121,49.4,110.121,110.122V371.643z" fill="#ffffff" data-original="#000000" class=""/>
	</g>
</g>
<g xmlns="http://www.w3.org/2000/svg">
	<g>
		<path d="M256,115.57c-77.434,0-140.431,62.997-140.431,140.431S178.565,396.432,256,396.432    c77.434,0,140.432-62.998,140.432-140.432S333.434,115.57,256,115.57z M256,366.197c-60.762,0-110.196-49.435-110.196-110.197    c0-60.762,49.434-110.196,110.196-110.196c60.763,0,110.197,49.435,110.197,110.197C366.197,316.763,316.763,366.197,256,366.197z    " fill="#ffffff" data-original="#000000" class=""/>
	</g>
</g>
<g xmlns="http://www.w3.org/2000/svg">
	<g>
		<path d="M404.831,64.503c-23.526,0-42.666,19.141-42.666,42.667c0,23.526,19.14,42.666,42.666,42.666    c23.526,0,42.666-19.141,42.666-42.667S428.357,64.503,404.831,64.503z M404.831,119.599c-6.853,0-12.43-5.576-12.43-12.43    s5.577-12.43,12.43-12.43c6.854,0,12.43,5.577,12.43,12.43S411.685,119.599,404.831,119.599z" fill="#ffffff" data-original="#000000" class=""/>
	</g>
</g>
<g xmlns="http://www.w3.org/2000/svg">
</g>
<g xmlns="http://www.w3.org/2000/svg">
</g>
<g xmlns="http://www.w3.org/2000/svg">
</g>
<g xmlns="http://www.w3.org/2000/svg">
</g>
<g xmlns="http://www.w3.org/2000/svg">
</g>
<g xmlns="http://www.w3.org/2000/svg">
</g>
<g xmlns="http://www.w3.org/2000/svg">
</g>
<g xmlns="http://www.w3.org/2000/svg">
</g>
<g xmlns="http://www.w3.org/2000/svg">
</g>
<g xmlns="http://www.w3.org/2000/svg">
</g>
<g xmlns="http://www.w3.org/2000/svg">
</g>
<g xmlns="http://www.w3.org/2000/svg">
</g>
<g xmlns="http://www.w3.org/2000/svg">
</g>
<g xmlns="http://www.w3.org/2000/svg">
</g>
<g xmlns="http://www.w3.org/2000/svg">
</g>
</g></svg>
