<?xml version="1.0"?>
<svg xmlns="http://www.w3.org/2000/svg" xmlns:xlink="http://www.w3.org/1999/xlink" xmlns:svgjs="http://svgjs.com/svgjs" version="1.1" width="30" height="65" x="0" y="0" viewBox="0 0 511.999 511.999" style="enable-background:new 0 0 512 512" xml:space="preserve" class=""><g>
<g xmlns="http://www.w3.org/2000/svg">
	<g>
		<path d="M509.738,109.538c-3.027-4.924-8.566-7.715-14.332-7.215l-25.53,2.224l24.403-49.193    c2.906-5.859,1.758-12.918-2.854-17.555c-4.614-4.637-11.666-5.819-17.539-2.943l-64.587,31.631    c-39.903-21.066-89.756-14.813-124.06,16.436c-28.63,26.08-43.679,66.187-40.873,106.183    c-74.829-7.5-138.169-50.331-175.623-119.537c-2.485-4.591-7.144-7.594-12.351-7.963c-5.217-0.363-10.243,1.949-13.349,6.146    c-23.23,31.382-24.86,74.41-6.649,109.809c-5.02-1.268-10.362-2.984-16.286-4.963c-5.075-1.697-10.67-0.61-14.743,2.862    s-6.031,8.823-5.16,14.104c7.206,43.688,32.682,77.264,72.926,97.138c-5.24,1.825-10.587,3.307-16.024,4.44    c-5.402,1.126-9.776,5.078-11.441,10.339c-1.665,5.26-0.363,11.01,3.407,15.039c28.981,30.978,70.845,46.225,100.581,53.539    c-33.81,26.477-70.307,30.908-123.341,29.087c-6.139-0.186-11.795,3.272-14.376,8.837c-2.58,5.566-1.579,12.136,2.544,16.681    c22.108,24.369,102.654,51.847,187.326,53.907c3.349,0.081,6.765,0.125,10.253,0.125c59.451-0.001,138.022-12.745,194.419-69.142    c42.687-42.686,69.387-91.827,79.356-146.053c8.052-43.797,2.963-78.869,0.518-95.725c-0.18-1.239-0.372-2.554-0.528-3.704    l23.881-38.49C512.752,120.672,512.765,114.462,509.738,109.538z M456.132,172.16c4.531,31.224,18.316,126.24-71.245,215.801    c-52.06,52.059-127.888,61.407-182.338,60.084c-46.461-1.13-88.019-10.016-118.139-20.15c12.229-1.5,23.127-3.814,33.414-7.011    c28.359-8.815,52.317-24.676,75.395-49.915c3.847-4.207,5.029-10.205,3.068-15.557c-1.961-5.352-6.741-9.166-12.395-9.89    c-14.559-1.866-58.305-9.23-92.753-32.992c9.927-4.06,19.501-9.141,28.643-15.205c5.015-3.328,7.609-9.29,6.621-15.227    c-0.987-5.936-5.368-10.741-11.19-12.267c-28.195-7.392-62.223-23.932-77.914-60.855c10.02,1.756,20.915,2.181,32.535-0.424    c5.386-1.206,9.702-5.226,11.286-10.514c1.585-5.288,0.193-11.02-3.641-14.99c-19.524-20.222-26.825-49.364-20.561-74.301    c20.514,29.981,46.503,55.213,76.279,73.868c38.091,23.865,82.549,37.054,128.57,38.137c4.683,0.099,9.175-1.945,12.157-5.573    c2.98-3.627,4.126-8.424,3.107-13.007c-7.918-35.595,3.375-73.541,28.771-96.674c26.34-23.995,65.269-27.635,94.666-8.846    c4.489,2.869,10.152,3.19,14.938,0.846l31.541-15.448l-16.509,33.281c-2.453,4.945-2.046,10.829,1.065,15.388    c3.11,4.559,8.431,7.09,13.938,6.607l22.242-1.937l-10.246,16.515C453.998,157.447,454.711,162.365,456.132,172.16z" fill="#ffffff" data-original="#000000" class=""/>
	</g>
</g>
<g xmlns="http://www.w3.org/2000/svg">
</g>
<g xmlns="http://www.w3.org/2000/svg">
</g>
<g xmlns="http://www.w3.org/2000/svg">
</g>
<g xmlns="http://www.w3.org/2000/svg">
</g>
<g xmlns="http://www.w3.org/2000/svg">
</g>
<g xmlns="http://www.w3.org/2000/svg">
</g>
<g xmlns="http://www.w3.org/2000/svg">
</g>
<g xmlns="http://www.w3.org/2000/svg">
</g>
<g xmlns="http://www.w3.org/2000/svg">
</g>
<g xmlns="http://www.w3.org/2000/svg">
</g>
<g xmlns="http://www.w3.org/2000/svg">
</g>
<g xmlns="http://www.w3.org/2000/svg">
</g>
<g xmlns="http://www.w3.org/2000/svg">
</g>
<g xmlns="http://www.w3.org/2000/svg">
</g>
<g xmlns="http://www.w3.org/2000/svg">
</g>
</g></svg>
